HIERARCHY
ROOT Hips
{
 OFFSET 0.000000 0.000000 0.000000
 CHANNELS 6 Xposition Yposition Zposition Yrotation Xrotation Zrotation
 JOINT Chest
 {
  OFFSET 0.000000 14.634200 -0.016200
  CHANNELS 3 Yrotation Xrotation Zrotation
  JOINT Chest2
  {
   OFFSET 0.000000 8.932900 0.033000
   CHANNELS 3 Yrotation Xrotation Zrotation
   JOINT Chest3
   {
    OFFSET 0.000000 8.892300 0.000000
    CHANNELS 3 Yrotation Xrotation Zrotation
    JOINT Chest4
    {
     OFFSET 0.000000 8.883200 0.000000
     CHANNELS 3 Yrotation Xrotation Zrotation
     JOINT Neck
     {
      OFFSET 0.000000 13.173600 0.000000
      CHANNELS 3 Yrotation Xrotation Zrotation
      JOINT Head
      {
       OFFSET 0.000000 8.324600 0.069800
       CHANNELS 3 Yrotation Xrotation Zrotation
       End Site
       {
        OFFSET 0.000000 15.692400 0.036900
       }
      }
     }
     JOINT RightCollar
     {
      OFFSET -2.619200 8.772200 0.000000
      CHANNELS 3 Yrotation Xrotation Zrotation
      JOINT RightShoulder
      {
       OFFSET -12.922000 0.000000 0.000000
       CHANNELS 3 Yrotation Xrotation Zrotation
       JOINT RightElbow
       {
        OFFSET 0.000000 -27.880900 0.000000
        CHANNELS 3 Yrotation Xrotation Zrotation
        JOINT RightWrist
        {
         OFFSET 0.000000 -22.758700 0.008200
         CHANNELS 3 Yrotation Xrotation Zrotation
         End Site
         {
          OFFSET 0.000000 -16.965000 0.000000
         }
        }
       }
      }
     }
     JOINT LeftCollar
     {
      OFFSET 2.619200 8.772200 0.000000
      CHANNELS 3 Yrotation Xrotation Zrotation
      JOINT LeftShoulder
      {
       OFFSET 12.922000 0.000000 0.000000
       CHANNELS 3 Yrotation Xrotation Zrotation
       JOINT LeftElbow
       {
        OFFSET 0.000000 -27.880900 0.000000
        CHANNELS 3 Yrotation Xrotation Zrotation
        JOINT LeftWrist
        {
         OFFSET 0.000000 -22.758700 0.008200
         CHANNELS 3 Yrotation Xrotation Zrotation
         End Site
         {
          OFFSET 0.000000 -16.965000 0.000000
         }
        }
       }
      }
     }
    }
   }
  }
 }
 JOINT RightHip
 {
  OFFSET -12.026800 0.080100 0.008100
  CHANNELS 3 Yrotation Xrotation Zrotation
  JOINT RightKnee
  {
   OFFSET 0.000000 -42.600800 -0.000200
   CHANNELS 3 Yrotation Xrotation Zrotation
   JOINT RightAnkle
   {
    OFFSET 0.000000 -38.219300 0.054300
    CHANNELS 3 Yrotation Xrotation Zrotation
    JOINT RightToe
    {
     OFFSET 0.000000 -9.685800 15.804700
     CHANNELS 3 Yrotation Xrotation Zrotation
     End Site
     {
      OFFSET 0.000000 -1.422300 5.761700
     }
    }
   }
  }
 }
 JOINT LeftHip
 {
  OFFSET 12.026800 0.080100 0.008100
  CHANNELS 3 Yrotation Xrotation Zrotation
  JOINT LeftKnee
  {
   OFFSET 0.000000 -42.600800 -0.000200
   CHANNELS 3 Yrotation Xrotation Zrotation
   JOINT LeftAnkle
   {
    OFFSET 0.000000 -38.219300 0.054300
    CHANNELS 3 Yrotation Xrotation Zrotation
    JOINT LeftToe
    {
     OFFSET 0.000000 -9.685800 15.804700
     CHANNELS 3 Yrotation Xrotation Zrotation
     End Site
     {
      OFFSET 0.000000 -1.422300 5.761700
     }
    }
   }
  }
 }
}
MOTION
Frames: 16
Frame Time: 0.008333
-8.964493 129.735781 18.605326 166.860920 -25.720608 1.067940 1.399526 20.720383 0.969567 0.163501 2.662023 0.096480 0.256325 4.382244 0.160119 1.169259 17.738326 0.798323 1.205711 9.736563 -0.111341 1.298975 -15.389025 -0.394044 5.610668 0.861813 -1.819441 20.277027 -28.158877 -14.494895 46.673608 -50.074034 -24.603531 14.259566 1.886746 -26.002548 -9.448777 2.007494 -1.408715 -1.028310 -28.850998 8.089507 -3.790276 -59.981322 -12.742141 -10.893913 12.327375 1.253385 0.622860 -47.896504 11.141475 -44.025282 83.559597 -49.765705 -3.107222 -15.048879 7.707734 0.000908 -0.007711 0.000556 22.557313 -40.048184 -19.555679 56.969476 75.591842 68.381541 4.764249 -15.712988 -8.155890 0.001357 -0.000461 0.000832
-8.965013 129.736026 18.605855 166.863139 -25.723656 1.071615 1.401973 20.713679 0.968477 0.160545 2.662078 0.095216 0.259475 4.378945 0.160240 1.169507 17.735004 0.796060 1.198659 9.746509 -0.107980 1.290375 -15.387380 -0.391210 5.610994 0.867928 -1.817243 20.276957 -28.150195 -14.491838 46.676459 -50.068357 -24.619945 14.269307 1.888704 -25.970267 -9.453332 2.018793 -1.407621 -1.032981 -28.855394 8.086278 -3.863546 -59.975741 -12.676546 -10.919315 12.340377 1.242083 0.626261 -47.893511 11.140220 -44.046622 83.558163 -49.789960 -3.108616 -15.046554 7.705579 0.002158 -0.006357 0.001322 22.545567 -40.047758 -19.557270 56.995889 75.590821 68.400362 4.766838 -15.714281 -8.154098 -0.001424 0.000949 -0.000873
-8.964550 129.736077 18.606965 166.865040 -25.725026 1.070936 1.404027 20.702872 0.970540 0.159782 2.665296 0.094895 0.258595 4.374700 0.158796 1.169562 17.730057 0.794430 1.185757 9.741354 -0.107947 1.297789 -15.365577 -0.387795 5.613295 0.874562 -1.814574 20.279763 -28.145887 -14.491805 46.687591 -50.054347 -24.628894 14.273748 1.888203 -25.942112 -9.460532 2.022244 -1.409449 -1.029463 -28.853932 8.083805 -3.922550 -59.964841 -12.624916 -10.902563 12.338886 1.241896 0.624938 -47.891047 11.145865 -44.063501 83.554618 -49.808119 -3.110038 -15.044984 7.703451 0.003413 -0.004960 0.002092 22.537694 -40.050100 -19.557088 57.021809 75.588084 68.426616 4.767416 -15.717304 -8.154697 -0.000856 0.000887 -0.000524
-8.965076 129.735716 18.608724 166.865834 -25.722488 1.073534 1.402736 20.699106 0.967857 0.161308 2.662047 0.094899 0.258034 4.368528 0.158862 1.168290 17.723903 0.791784 1.180420 9.746268 -0.106509 1.289682 -15.358797 -0.384486 5.614081 0.880188 -1.811518 20.286857 -28.138654 -14.496605 46.703588 -50.038251 -24.639792 14.282913 1.884238 -25.927224 -9.463335 2.014287 -1.422469 -1.033931 -28.836159 8.095769 -3.974327 -59.957161 -12.577871 -10.906425 12.339238 1.235687 0.628769 -47.893916 11.146640 -44.061471 83.548345 -49.811441 -3.111129 -15.037956 7.706394 0.002690 -0.004346 0.001649 22.534475 -40.054525 -19.559576 57.027787 75.586985 68.429587 4.767234 -15.716865 -8.155197 -0.000864 0.001890 -0.000530
-8.965707 129.735718 18.609736 166.871965 -25.722941 1.074476 1.402528 20.691162 0.966917 0.158061 2.664989 0.094606 0.261045 4.359415 0.158599 1.170215 17.697282 0.792117 1.167155 9.776096 -0.103701 1.281526 -15.352463 -0.382753 5.606893 0.910551 -1.804340 20.289887 -28.129989 -14.499371 46.781503 -49.997657 -24.691549 14.300964 1.868701 -25.892044 -9.472107 2.051197 -1.427685 -1.034594 -28.839293 8.095286 -4.016558 -59.948966 -12.538028 -10.906422 12.350343 1.230419 0.628143 -47.893984 11.143331 -44.089253 83.544866 -49.840449 -3.108382 -15.034545 7.705035 0.002073 -0.004226 0.001270 22.527557 -40.054425 -19.562322 57.024371 75.588421 68.424373 4.775371 -15.719571 -8.154945 0.001556 0.002696 0.000953
-8.965847 129.736341 18.609491 166.878067 -25.729024 1.074383 1.401161 20.676909 0.966532 0.157240 2.672047 0.095298 0.260623 4.357122 0.158983 1.167622 17.690944 0.790455 1.159781 9.787212 -0.103022 1.257219 -15.340746 -0.378169 5.605453 0.924360 -1.799652 20.293298 -28.122352 -14.502929 46.814562 -49.974638 -24.713503 14.302690 1.855313 -25.885043 -9.472143 2.058316 -1.434337 -1.044057 -28.836426 8.101075 -4.023648 -59.934840 -12.522802 -10.901524 12.355328 1.220723 0.625431 -47.888590 11.141578 -44.128546 83.540387 -49.881035 -3.105188 -15.028324 7.706760 0.000989 -0.004874 0.000606 22.520869 -40.048455 -19.561945 57.024999 75.588825 68.423792 4.777107 -15.724068 -8.152723 0.001458 0.003577 0.000894
-8.966115 129.736534 18.610095 166.878586 -25.731025 1.076327 1.399994 20.676138 0.964172 0.158243 2.652567 0.094229 0.260291 4.362590 0.159131 1.169033 17.685982 0.790182 1.153394 9.798890 -0.101030 1.249744 -15.328534 -0.374472 5.603508 0.943134 -1.794518 20.296492 -28.119540 -14.505701 46.846923 -49.949748 -24.735332 14.282679 1.842007 -25.887979 -9.470879 2.055707 -1.446742 -1.054007 -28.825891 8.108454 -4.023483 -59.918086 -12.512759 -10.894192 12.359149 1.211439 0.633988 -47.890316 11.133427 -44.148253 83.539851 -49.897002 -3.106367 -15.019100 7.707586 -0.002286 -0.005328 -0.001401 22.519082 -40.048725 -19.565174 57.030531 75.585682 68.433783 4.778038 -15.721466 -8.158829 0.004390 0.002404 0.002690
-8.966246 129.736474 18.611102 166.877989 -25.730946 1.077838 1.400338 20.666738 0.962611 0.157942 2.658982 0.094437 0.260827 4.350039 0.158494 1.170930 17.682384 0.787978 1.147380 9.810306 -0.096670 1.244964 -15.318303 -0.370740 5.601635 0.948370 -1.790136 20.294360 -28.107647 -14.499618 46.881573 -49.924522 -24.758159 14.295435 1.827785 -25.875268 -9.471843 2.064766 -1.453747 -1.046225 -28.839865 8.099179 -4.030204 -59.892619 -12.508612 -10.878770 12.362751 1.209959 0.641928 -47.892143 11.128033 -44.131415 83.540494 -49.878396 -3.108729 -15.015245 7.709862 -0.003636 -0.005820 -0.002228 22.516265 -40.052553 -19.565544 57.033574 75.587555 68.437219 4.778890 -15.720737 -8.161551 0.005983 0.001546 0.003667
-8.967520 129.736840 18.610874 166.887289 -25.734428 1.080459 1.399571 20.653418 0.959224 0.152519 2.664369 0.095711 0.260495 4.346742 0.157939 1.168602 17.684954 0.783645 1.144305 9.819245 -0.091406 1.243938 -15.314190 -0.369219 5.603650 0.934942 -1.787685 20.288690 -28.092159 -14.493864 46.907432 -49.900172 -24.768496 14.357881 1.822434 -25.823935 -9.472468 2.073133 -1.455253 -1.040684 -28.848066 8.093216 -4.024112 -59.878420 -12.515512 -10.853112 12.365150 1.211631 0.651774 -47.888619 11.116076 -44.127276 83.538377 -49.871272 -3.116545 -15.012406 7.709580 -0.001693 -0.006019 -0.001037 22.505199 -40.050855 -19.570011 57.040465 75.587394 68.439690 4.776920 -15.721939 -8.161507 0.006252 0.001581 0.003831
-8.968332 129.736931 18.611028 166.892196 -25.735565 1.082698 1.396310 20.650876 0.954536 0.159963 2.651222 0.091527 0.255304 4.352659 0.160889 1.165773 17.692287 0.785245 1.142102 9.820861 -0.089574 1.234628 -15.305294 -0.359622 5.603888 0.934527 -1.785729 20.299899 -28.093845 -14.503733 46.925534 -49.875443 -24.777785 14.369585 1.818635 -25.803077 -9.471725 2.073205 -1.457768 -1.040834 -28.848896 8.093665 -4.021606 -59.872715 -12.518731 -10.814174 12.367995 1.216798 0.653826 -47.886784 11.110213 -44.096884 83.539316 -49.844448 -3.116949 -15.010298 7.712414 -0.001692 -0.005885 -0.001037 22.491185 -40.055782 -19.575043 57.077391 75.582126 68.466722 4.776393 -15.722133 -8.158992 0.001633 0.000899 0.001001
-8.968787 129.736767 18.611511 166.896057 -25.734236 1.083368 1.395036 20.646133 0.951473 0.162183 2.647543 0.089834 0.260028 4.339917 0.155358 1.160799 17.698039 0.786209 1.139045 9.830619 -0.079465 1.219179 -15.294900 -0.333249 5.600977 0.935572 -1.770989 20.324679 -28.084597 -14.523413 46.926894 -49.854451 -24.777466 14.381096 1.816414 -25.785973 -9.475048 2.080722 -1.446316 -1.033345 -28.851209 8.074959 -3.999517 -59.857428 -12.532896 -10.790168 12.371033 1.224023 0.655511 -47.887473 11.106897 -44.074122 83.540326 -49.824606 -3.116798 -15.009626 7.715541 -0.002129 -0.005788 -0.001305 22.486555 -40.062422 -19.580999 57.092450 75.579633 68.477927 4.776752 -15.719373 -8.156906 -0.000144 -0.000753 -0.000088
-8.969257 129.736473 18.611859 166.900597 -25.731855 1.083358 1.400848 20.634005 0.948005 0.157458 2.650783 0.092280 0.260097 4.337369 0.154942 1.160862 17.691839 0.782351 1.134615 9.838533 -0.068785 1.216930 -15.288621 -0.326776 5.601059 0.925286 -1.760011 20.338811 -28.061179 -14.533354 46.928135 -49.836755 -24.776908 14.383892 1.814256 -25.777892 -9.478291 2.090485 -1.438399 -1.012730 -28.861241 8.045602 -3.946687 -59.824723 -12.573610 -10.796308 12.364754 1.224336 0.655422 -47.889796 11.106009 -44.057457 83.541919 -49.810039 -3.121053 -15.008932 7.717527 -0.001394 -0.006026 -0.000854 22.482379 -40.070796 -19.586145 57.114537 75.579905 68.492456 4.782470 -15.719487 -8.151647 -0.001567 -0.002197 -0.000960
-8.969805 129.736173 18.611993 166.910203 -25.728669 1.080998 1.396305 20.626866 0.946258 0.157377 2.648940 0.092129 0.258418 4.338704 0.155432 1.163339 17.683890 0.778294 1.128162 9.834014 -0.053731 1.217694 -15.273802 -0.325952 5.598833 0.923815 -1.753807 20.353262 -28.053457 -14.543526 46.923993 -49.817004 -24.770940 14.394352 1.815293 -25.767453 -9.487272 2.094587 -1.437842 -1.000232 -28.863341 8.032080 -3.937550 -59.804767 -12.577723 -10.772050 12.359824 1.234389 0.651056 -47.892201 11.103073 -44.039528 83.545629 -49.792698 -3.123773 -15.010167 7.718829 -0.001523 -0.006637 -0.000933 22.475102 -40.076593 -19.591092 57.107601 75.586509 68.485408 4.791592 -15.719209 -8.152611 0.000597 -0.000798 0.000366
-8.970295 129.735910 18.611752 166.916572 -25.725430 1.079437 1.393400 20.621030 0.944458 0.156605 2.647655 0.092964 0.258648 4.338070 0.155538 1.166046 17.674275 0.777104 1.120036 9.832823 -0.043968 1.210680 -15.266790 -0.316948 5.597692 0.925234 -1.752492 20.356475 -28.048312 -14.542045 46.930580 -49.794386 -24.771998 14.411893 1.817440 -25.757133 -9.491881 2.106226 -1.439056 -0.999724 -28.864943 8.028795 -3.930189 -59.796080 -12.580306 -10.741530 12.356259 1.247680 0.650968 -47.893100 11.105200 -44.071513 83.540860 -49.826549 -3.127689 -15.013104 7.722025 0.000464 -0.005588 0.000284 22.469871 -40.082150 -19.595216 57.110958 75.584793 68.487524 4.791734 -15.717775 -8.151629 0.001267 0.000324 0.000777
-8.970851 129.735722 18.611136 166.920323 -25.722277 1.078852 1.391818 20.616086 0.941058 0.155198 2.648224 0.095707 0.259154 4.331348 0.154183 1.162985 17.656933 0.767504 1.121016 9.843697 -0.027970 1.207323 -15.263895 -0.307169 5.603555 0.939324 -1.742269 20.360100 -28.043313 -14.547803 46.934302 -49.778227 -24.768005 14.405508 1.812887 -25.761637 -9.486831 2.129739 -1.435982 -1.002421 -28.866313 8.026477 -3.924041 -59.788787 -12.580284 -10.733094 12.353721 1.251001 0.654370 -47.894500 11.102033 -44.083037 83.538687 -49.836839 -3.127912 -15.015803 7.723437 0.000518 -0.004773 0.000318 22.464507 -40.089493 -19.597787 57.101179 75.597571 68.482100 4.790942 -15.713574 -8.154066 0.000820 -0.000094 0.000502
-8.970868 129.735490 18.610570 166.921460 -25.718406 1.076533 1.392597 20.610127 0.940132 0.156269 2.647383 0.094444 0.260353 4.320397 0.150242 1.163804 17.664149 0.774142 1.119370 9.842385 -0.022480 1.199529 -15.273011 -0.290584 5.606564 0.936486 -1.740164 20.367817 -28.037368 -14.564111 46.930039 -49.770693 -24.757447 14.424984 1.816457 -25.752448 -9.489249 2.129788 -1.439981 -0.999066 -28.870036 8.022567 -3.901382 -59.772454 -12.591262 -10.740205 12.349144 1.248817 0.657456 -47.897089 11.100917 -44.072883 83.537503 -49.824165 -3.127086 -15.018126 7.724696 -0.000296 -0.005002 -0.000181 22.460538 -40.098511 -19.595410 57.105976 75.605625 68.488331 4.792328 -15.711354 -8.158166 0.002604 -0.001103 0.001596
